<svg width="120" height="27" viewBox="0 0 120 27" fill="none" xmlns="http://www.w3.org/2000/svg">
<g clip-path="url(#clip0_7_2176)">
<path d="M21.8644 6.93057C21.8644 3.10881 18.7288 0.000999451 14.8729 0.000999451H0V23.0576H6.05932V4.57871H11.7373C13.9407 4.57871 15.7627 6.3846 15.7627 8.56846C15.7627 10.7523 13.9407 12.5582 11.7373 12.5582H7.41525L8.51695 13.9441L15.678 23.1836H23.3475L16.1017 13.8181C19.4068 13.2302 21.8644 10.3324 21.8644 6.93057Z" fill="#091D42"/>
<path d="M47.8815 0.000823975H40.2544L26.8221 17.1357H26.7374V17.2197L24.6611 19.8656V23.1414H46.5255V17.1357H34.4916L47.8815 0.000823975Z" fill="#091D42"/>
<path d="M33.856 0.000823975H24.6611V6.00645H33.856V0.000823975Z" fill="#091D42"/>
<path d="M61.1018 0.0848187L55.3391 4.78852V0.000823975H49.2798V23.0574H55.3391V12.432L70.6357 0.0848187H61.1018Z" fill="#091D42"/>
<path d="M65.2543 13.818L64.2374 12.516H56.5679L57.6696 13.86L64.8306 23.1414H72.4577L65.2543 13.818Z" fill="#091D42"/>
<path d="M80.5514 12.0541V15.8758C80.0429 15.2879 79.3225 14.9519 78.2208 14.9519C76.1867 14.9519 74.4917 16.6738 74.4917 18.9836C74.4917 21.2935 76.1867 23.0154 78.2208 23.0154C79.2378 23.0154 80.0429 22.6374 80.5514 22.0914V22.8054H82.8821V12.0541H80.5514ZM78.6869 20.8735C77.5851 20.8735 76.8647 20.1596 76.8647 18.9836C76.8647 17.8077 77.5851 17.0938 78.6869 17.0938C79.7886 17.0938 80.509 17.8077 80.509 18.9836C80.509 20.1596 79.7039 20.8735 78.6869 20.8735Z" fill="#091D42"/>
<path d="M85.7207 14.4479C86.493 14.4479 87.1191 13.8274 87.1191 13.062C87.1191 12.2966 86.493 11.6761 85.7207 11.6761C84.9483 11.6761 84.3223 12.2966 84.3223 13.062C84.3223 13.8274 84.9483 14.4479 85.7207 14.4479Z" fill="#091D42"/>
<path d="M86.9073 15.1619H84.5767V22.8054H86.9073V15.1619Z" fill="#091D42"/>
<path d="M94.28 15.1619V15.9598C93.7715 15.2879 93.0511 14.9519 92.0341 14.9519C89.8306 14.9519 88.2627 16.7578 88.2627 18.8576C88.2627 20.9575 89.873 22.7634 92.0341 22.7634C93.0511 22.7634 93.7715 22.3854 94.28 21.7555V22.4694C94.28 23.5613 93.602 24.1493 92.5426 24.1493C91.5256 24.1493 91.1019 23.7293 90.8052 23.2254L88.856 24.4013C89.5763 25.6192 90.89 26.2912 92.5003 26.2912C94.5343 26.2912 96.5683 25.1992 96.5683 22.5954V15.1619H94.28ZM92.4579 20.6635C91.3561 20.6635 90.551 19.9496 90.551 18.8576C90.551 17.7657 91.3561 17.0518 92.4579 17.0518C93.5596 17.0518 94.3648 17.7657 94.3648 18.8576C94.28 19.9496 93.5596 20.6635 92.4579 20.6635Z" fill="#091D42"/>
<path d="M100.593 15.1619H98.2627V22.8054H100.593V15.1619Z" fill="#091D42"/>
<path d="M99.4492 14.5319C100.17 14.5319 100.848 13.86 100.848 13.146C100.848 12.432 100.17 11.7601 99.4492 11.7601C98.7288 11.7601 98.0508 12.39 98.0508 13.146C98.0508 13.902 98.644 14.5319 99.4492 14.5319Z" fill="#091D42"/>
<path d="M106.865 20.7475C105.848 20.8315 105.254 20.7475 105.254 20.1176V17.3877H106.865V15.1199H105.254V12.936L102.924 13.65V15.1199H101.695V17.3457H102.924V20.0756C102.924 22.2594 103.814 23.0994 106.865 22.8054V20.7475Z" fill="#091D42"/>
<path d="M113.687 15.1619V15.8758C113.178 15.2879 112.458 14.9519 111.356 14.9519C109.322 14.9519 107.627 16.6738 107.627 18.9836C107.627 21.2935 109.322 23.0154 111.356 23.0154C112.373 23.0154 113.178 22.6374 113.687 22.0914V22.8054H116.017V15.1619H113.687ZM111.822 20.8735C110.72 20.8735 110 20.1596 110 18.9836C109.915 17.8077 110.72 17.0938 111.822 17.0938C112.924 17.0938 113.644 17.8077 113.644 18.9836C113.687 20.1596 112.882 20.8735 111.822 20.8735Z" fill="#091D42"/>
<path d="M120 11.6341H117.669V22.8474H120V11.6341Z" fill="#091D42"/>
</g>
<defs>
<clipPath id="clip0_7_2176">
<rect width="120" height="26.25" fill="white"/>
</clipPath>
</defs>
</svg>
